<svg width="40" height="40" viewBox="0 0 40 40" fill="none" xmlns="http://www.w3.org/2000/svg">
  <rect width="40" height="40" rx="10" fill="url(#gradient)" />
  
  <g transform="translate(8, 8)">
    <path d="M9.937 15.5A2 2 0 0 0 8.5 14.063l-6.16-2.05a.5.5 0 0 1 0-.95l6.16-2.05a2 2 0 0 0 1.437-1.437l2.05-6.16a.5.5 0 0 1 .95 0l2.05 6.16a2 2 0 0 0 1.437 1.437l6.16 2.05a.5.5 0 0 1 0 .95l-6.16 2.05a2 2 0 0 0-1.437 1.437l-2.05 6.16a.5.5 0 0 1-.95 0l-2.05-6.16a2 2 0 0 0-1.437-1.437Z" fill="white"/>
    <path d="M20 3v4" stroke="white" stroke-width="2" stroke-linecap="round"/>
    <path d="M22 5h-4" stroke="white" stroke-width="2" stroke-linecap="round"/>
    <path d="M4 17v2" stroke="white" stroke-width="2" stroke-linecap="round"/>
    <path d="M5 18H3" stroke="white" stroke-width="2" stroke-linecap="round"/>
  </g>

  <defs>
    <linearGradient id="gradient" x1="0" y1="0" x2="40" y2="40" gradientUnits="userSpaceOnUse">
      <stop stop-color="#fbbf24" /> <stop offset="1" stop-color="#f97316" /> </linearGradient>
  </defs>
</svg>